<?xml version="1.0" encoding="UTF-8" standalone="no"?><!DOCTYPE svg PUBLIC "-//W3C//DTD SVG 1.1//EN" "http://www.w3.org/Graphics/SVG/1.1/DTD/svg11.dtd"><svg width="100%" height="100%" viewBox="0 0 125 61" version="1.1" xmlns="http://www.w3.org/2000/svg" xmlns:xlink="http://www.w3.org/1999/xlink" xml:space="preserve" xmlns:serif="http://www.serif.com/" style="fill-rule:evenodd;clip-rule:evenodd;stroke-linejoin:round;stroke-miterlimit:2;"><path d="M124.42,5.054c0,-1.341 -0.533,-2.626 -1.481,-3.574c-0.947,-0.948 -2.233,-1.48 -3.573,-1.48c-20.095,0 -94.217,0 -114.312,0c-1.341,0 -2.626,0.532 -3.574,1.48c-0.948,0.948 -1.48,2.233 -1.48,3.574c0,11.373 0,38.876 0,50.249c0,1.341 0.532,2.626 1.48,3.574c0.948,0.948 2.233,1.48 3.574,1.48c20.095,0 94.217,0 114.312,0c1.34,0 2.626,-0.532 3.573,-1.48c0.948,-0.948 1.481,-2.233 1.481,-3.574c0,-11.373 0,-38.876 0,-50.249Z" style="fill:#c30e00;"/><path d="M111.766,16.529c-1.894,-2.248 -3.525,-3.706 -4.408,-4.435c-0.115,-0.094 -0.216,-0.175 -0.304,-0.245c-4.077,-3.33 -9.278,-5.334 -14.952,-5.334c-7.31,0 -13.845,3.316 -18.186,8.525c-1.042,0.972 -2.837,1.037 -4.334,0.367c-1.443,-0.646 -5.482,-1.619 -8.224,-1.619c-2.741,0 -6.78,0.973 -8.223,1.619c-1.498,0.67 -3.292,0.605 -4.335,-0.367c-4.34,-5.209 -10.875,-8.525 -18.185,-8.525c-5.674,0 -10.876,2.004 -14.952,5.334c-0.088,0.07 -0.189,0.151 -0.303,0.245c-0.884,0.729 -2.515,2.187 -4.409,4.435c-3.878,4.601 -4.488,-2.289 -4,13.65c0,7.957 3.932,14.991 9.953,19.281c3.869,2.756 8.599,4.382 13.711,4.382c1.594,0 3.15,-0.164 4.656,-0.465c0.178,-0.036 0.355,-0.073 0.532,-0.112c0.696,-0.156 1.379,-0.343 2.051,-0.559c7.032,-2.257 12.631,-7.712 15.081,-14.654c1.406,-3.589 2.508,-7.262 3.283,-11.04c0.214,-1.04 0.147,-1.721 -0.817,-2.459c-1.649,-1.262 -1.493,-2.983 0.217,-4.137c0.576,-0.388 1.244,-0.736 1.916,-0.868c1.274,-0.249 2.55,-0.504 3.824,-0.504c1.275,0 2.55,0.255 3.824,0.504c0.672,0.132 1.34,0.48 1.916,0.868c1.711,1.154 1.866,2.875 0.218,4.137c-0.965,0.738 -1.032,1.419 -0.818,2.459c0.775,3.778 1.878,7.451 3.283,11.04c2.451,6.942 8.049,12.397 15.082,14.654c0.671,0.216 1.355,0.403 2.051,0.559c0.176,0.039 0.354,0.076 0.531,0.112c1.507,0.301 3.062,0.465 4.657,0.465c5.112,0 9.841,-1.626 13.71,-4.382c6.021,-4.29 9.953,-11.324 9.953,-19.281c0.49,-15.939 -0.121,-9.049 -3.999,-13.65Zm-81.398,-5.223c10.416,0 18.873,8.457 18.873,18.873c0,10.415 -8.457,18.872 -18.873,18.872c-10.415,0 -18.872,-8.457 -18.872,-18.872c0,-10.416 8.457,-18.873 18.872,-18.873Zm61.739,0c10.416,0 18.873,8.457 18.873,18.873c0,10.415 -8.457,18.872 -18.873,18.872c-10.415,0 -18.872,-8.457 -18.872,-18.872c0,-10.416 8.457,-18.873 18.872,-18.873Z" style="fill:#fff;fill-rule:nonzero;"/></svg>