<?xml version="1.0" encoding="UTF-8" standalone="no"?><!DOCTYPE svg PUBLIC "-//W3C//DTD SVG 1.1//EN" "http://www.w3.org/Graphics/SVG/1.1/DTD/svg11.dtd"><svg width="100%" height="100%" viewBox="0 0 110 60" version="1.1" xmlns="http://www.w3.org/2000/svg" xmlns:xlink="http://www.w3.org/1999/xlink" xml:space="preserve" xmlns:serif="http://www.serif.com/" style="fill-rule:evenodd;clip-rule:evenodd;stroke-linejoin:round;stroke-miterlimit:2;"><path d="M110,5.054c0,-1.341 -0.533,-2.626 -1.481,-3.574c-0.947,-0.948 -2.233,-1.48 -3.573,-1.48c-20.095,0 -79.797,0.118 -99.892,0.118c-1.341,0 -2.626,0.532 -3.574,1.48c-0.948,0.948 -1.48,2.233 -1.48,3.574l0,49.774c0,1.341 0.532,2.626 1.48,3.574c0.948,0.948 2.233,1.48 3.574,1.48c20.095,0 79.797,-0.118 99.892,-0.118c1.34,0 2.626,-0.532 3.573,-1.48c0.948,-0.948 1.481,-2.233 1.481,-3.574l0,-49.774Zm-12.411,13.909c-0.8,-0.949 -1.544,-1.732 -2.182,-2.354c-0.638,-0.623 -1.169,-1.085 -1.542,-1.393c-0.097,-0.079 -0.183,-0.148 -0.257,-0.207c-3.445,-2.813 -7.839,-4.506 -12.633,-4.506c-6.176,0 -11.697,2.801 -15.365,7.202c-0.881,0.822 -2.397,0.877 -3.662,0.31c-1.219,-0.545 -4.632,-1.367 -6.948,-1.367c-2.316,0 -5.729,0.822 -6.948,1.367c-1.266,0.567 -2.781,0.512 -3.663,-0.31c-3.666,-4.401 -9.188,-7.202 -15.364,-7.202c-4.794,0 -9.189,1.693 -12.633,4.506c-0.074,0.059 -0.16,0.128 -0.256,0.207c-0.747,0.616 -2.125,1.848 -3.725,3.747c-3.277,3.888 -3.792,-1.934 -3.38,11.533c0,6.723 3.322,12.666 8.41,16.291c3.268,2.328 7.265,3.702 11.584,3.702c1.347,0 2.661,-0.138 3.934,-0.393c0.15,-0.03 0.3,-0.061 0.449,-0.094c0.588,-0.132 1.165,-0.29 1.733,-0.473c5.941,-1.907 10.672,-6.516 12.742,-12.381c1.188,-3.032 2.119,-6.135 2.774,-9.327c0.181,-0.879 0.124,-1.455 -0.69,-2.078c-1.394,-1.066 -1.262,-2.52 0.183,-3.495c0.487,-0.328 1.051,-0.622 1.619,-0.734c1.076,-0.21 2.154,-0.426 3.231,-0.426c1.077,0 2.154,0.216 3.231,0.426c0.567,0.112 1.132,0.406 1.618,0.734c1.446,0.975 1.577,2.429 0.185,3.495c-0.816,0.623 -0.872,1.199 -0.692,2.078c0.655,3.192 1.587,6.295 2.774,9.327c2.071,5.865 6.801,10.474 12.743,12.381c0.567,0.183 1.145,0.341 1.733,0.473c0.149,0.033 0.299,0.064 0.448,0.094c1.274,0.255 2.588,0.393 3.935,0.393c4.319,0 8.315,-1.374 11.584,-3.702c5.087,-3.625 8.409,-9.568 8.409,-16.291c0.414,-13.466 -0.102,-7.645 -3.379,-11.533Zm-68.773,-4.412c4.212,0 8.044,1.636 10.895,4.306c3.108,2.911 5.051,7.05 5.051,11.639c0,8.8 -7.145,15.945 -15.946,15.945c-8.799,0 -15.945,-7.145 -15.945,-15.945c0,-8.8 7.145,-15.945 15.945,-15.945Zm52.163,0c8.801,0 15.946,7.145 15.946,15.945c0,8.8 -7.145,15.945 -15.946,15.945c-8.799,0 -15.945,-7.145 -15.945,-15.945c0,-8.8 7.146,-15.945 15.945,-15.945Z" style="fill:#c30e00;"/></svg>